SplineFontDB: 3.2
FontName: mem-prop-5x6
FullName: mem 5x6
FamilyName: mem 5x6
Weight: Regular
Copyright: © oidoid
Version: 6.0.4
ItalicAngle: 0
UnderlinePosition: -100
UnderlineWidth: 50
Ascent: 500
Descent: 100
InvalidEm: 0
LayerCount: 2
Layer: 0 0 "Back" 1
Layer: 1 0 "Fore" 0
StyleMap: 0x0000
FSType: 0
OS2Version: 0
OS2_WeightWidthSlopeOnly: 0
OS2_UseTypoMetrics: 1
CreationTime: 0
ModificationTime: 0
PfmFamily: 17
TTFWeight: 400
TTFWidth: 5
LineGap: 54
VLineGap: 54
Panose: 2 0 5 3 0 0 0 0 0 0
OS2TypoAscent: 500
OS2TypoAOffset: 0
OS2TypoDescent: -100
OS2TypoDOffset: 0
OS2TypoLinegap: 54
OS2WinAscent: 500
OS2WinAOffset: 0
OS2WinDescent: 100
OS2WinDOffset: 0
HheadAscent: 500
HheadAOffset: 0
HheadDescent: 100
HheadDOffset: 0
OS2SubXSize: 390
OS2SubYSize: 420
OS2SubXOff: 0
OS2SubYOff: 84
OS2SupXSize: 390
OS2SupYSize: 420
OS2SupXOff: 0
OS2SupYOff: 288
OS2StrikeYSize: 29
OS2StrikeYPos: 155
Lookup: 258 0 0 "kern" { "kern-lut"  } ['kern' ('dflt' <'dflt' > ) ]
DEI: 91125
Encoding: ISO8859-1
UnicodeInterp: none
NameList: AGL For New Fonts
DisplaySize: -48
AntiAlias: 1
FitToEm: 0
OnlyBitmaps: 1
BeginChars: 256 128

StartChar: exclam
Encoding: 33 33 33
Width: 100
VWidth: 500
Flags: W
LayerCount: 2
Fore
SplineSet
0 350 m 1
 0 500 l 1
 50 500 l 1
 100 500 l 1
 100 350 l 1
 100 200 l 1
 50 200 l 1
 0 200 l 1
 0 350 l 1
0 50 m 1
 0 100 l 1
 50 100 l 1
 100 100 l 1
 100 50 l 1
 100 0 l 1
 50 0 l 1
 0 0 l 1
 0 50 l 1
EndSplineSet
EndChar

StartChar: quotedbl
Encoding: 34 34 34
Width: 300
VWidth: 500
Flags: W
LayerCount: 2
Fore
SplineSet
0 400 m 1
 0 500 l 1
 50 500 l 1
 100 500 l 1
 100 400 l 1
 100 300 l 1
 50 300 l 1
 0 300 l 1
 0 400 l 1
200 400 m 1
 200 500 l 1
 250 500 l 1
 300 500 l 1
 300 400 l 1
 300 300 l 1
 250 300 l 1
 200 300 l 1
 200 400 l 1
EndSplineSet
EndChar

StartChar: numbersign
Encoding: 35 35 35
Width: 500
VWidth: 500
Flags: W
LayerCount: 2
Fore
SplineSet
100 450 m 1
 100 500 l 1
 150 500 l 1
 200 500 l 1
 200 450 l 1
 200 400 l 1
 250 400 l 1
 300 400 l 1
 300 450 l 1
 300 500 l 1
 350 500 l 1
 400 500 l 1
 400 450 l 1
 400 400 l 1
 450 400 l 1
 500 400 l 1
 500 350 l 1
 500 300 l 1
 450 300 l 1
 400 300 l 1
 400 250 l 1
 400 200 l 1
 450 200 l 1
 500 200 l 1
 500 150 l 1
 500 100 l 1
 450 100 l 1
 400 100 l 1
 400 50 l 1
 400 0 l 1
 350 0 l 1
 300 0 l 1
 300 50 l 1
 300 100 l 1
 250 100 l 1
 200 100 l 1
 200 50 l 1
 200 0 l 1
 150 0 l 1
 100 0 l 1
 100 50 l 1
 100 100 l 1
 50 100 l 1
 0 100 l 1
 0 150 l 1
 0 200 l 1
 50 200 l 1
 100 200 l 1
 100 250 l 1
 100 300 l 1
 50 300 l 1
 0 300 l 1
 0 350 l 1
 0 400 l 1
 50 400 l 1
 100 400 l 1
 100 450 l 1
300 250 m 1
 300 300 l 1
 250 300 l 1
 200 300 l 1
 200 250 l 1
 200 200 l 1
 250 200 l 1
 300 200 l 1
 300 250 l 1
EndSplineSet
EndChar

StartChar: dollar
Encoding: 36 36 36
Width: 300
VWidth: 500
Flags: W
LayerCount: 2
Fore
SplineSet
100 450 m 1
 100 500 l 1
 150 500 l 1
 200 500 l 1
 200 450 l 1
 200 400 l 1
 250 400 l 1
 300 400 l 1
 300 350 l 1
 300 300 l 1
 250 300 l 1
 200 300 l 1
 200 250 l 1
 200 200 l 1
 250 200 l 1
 300 200 l 1
 300 100 l 1
 300 0 l 1
 250 0 l 1
 200 0 l 1
 200 -50 l 1
 200 -100 l 1
 150 -100 l 1
 100 -100 l 1
 100 -50 l 1
 100 0 l 1
 50 0 l 1
 0 0 l 1
 0 50 l 1
 0 100 l 1
 50 100 l 1
 100 100 l 1
 100 150 l 1
 100 200 l 1
 50 200 l 1
 0 200 l 1
 0 300 l 1
 0 400 l 1
 50 400 l 1
 100 400 l 1
 100 450 l 1
EndSplineSet
EndChar

StartChar: percent
Encoding: 37 37 37
Width: 300
VWidth: 500
Flags: W
LayerCount: 2
Fore
SplineSet
0 450 m 1
 0 500 l 1
 50 500 l 1
 100 500 l 1
 100 450 l 1
 100 400 l 1
 50 400 l 1
 0 400 l 1
 0 450 l 1
200 350 m 1
 200 400 l 1
 250 400 l 1
 300 400 l 1
 300 300 l 1
 300 200 l 1
 200 200 l 1
 100 200 l 1
 100 150 l 1
 100 100 l 1
 50 100 l 1
 0 100 l 1
 0 200 l 1
 0 300 l 1
 100 300 l 1
 200 300 l 1
 200 350 l 1
200 50 m 1
 200 100 l 1
 250 100 l 1
 300 100 l 1
 300 50 l 1
 300 0 l 1
 250 0 l 1
 200 0 l 1
 200 50 l 1
EndSplineSet
EndChar

StartChar: ampersand
Encoding: 38 38 38
Width: 400
VWidth: 500
Flags: W
LayerCount: 2
Fore
SplineSet
100 400 m 1
 100 500 l 1
 250 500 l 1
 400 500 l 1
 400 350 l 1
 400 200 l 1
 350 200 l 1
 300 200 l 1
 300 150 l 1
 300 100 l 1
 350 100 l 1
 400 100 l 1
 400 50 l 1
 400 0 l 1
 200 0 l 1
 0 0 l 1
 0 150 l 1
 0 300 l 1
 50 300 l 1
 100 300 l 1
 100 400 l 1
300 350 m 1
 300 400 l 1
 250 400 l 1
 200 400 l 1
 200 350 l 1
 200 300 l 1
 250 300 l 1
 300 300 l 1
 300 350 l 1
200 150 m 1
 200 200 l 1
 150 200 l 1
 100 200 l 1
 100 150 l 1
 100 100 l 1
 150 100 l 1
 200 100 l 1
 200 150 l 1
EndSplineSet
EndChar

StartChar: quotesingle
Encoding: 39 39 39
Width: 100
VWidth: 500
Flags: W
LayerCount: 2
Fore
SplineSet
0 400 m 1
 0 500 l 1
 50 500 l 1
 100 500 l 1
 100 400 l 1
 100 300 l 1
 50 300 l 1
 0 300 l 1
 0 400 l 1
EndSplineSet
EndChar

StartChar: parenleft
Encoding: 40 40 40
Width: 200
VWidth: 500
Flags: W
LayerCount: 2
Fore
SplineSet
100 450 m 1
 100 500 l 1
 150 500 l 1
 200 500 l 1
 200 450 l 1
 200 400 l 1
 150 400 l 1
 100 400 l 1
 100 250 l 1
 100 100 l 1
 150 100 l 1
 200 100 l 1
 200 50 l 1
 200 0 l 1
 150 0 l 1
 100 0 l 1
 100 50 l 1
 100 100 l 1
 50 100 l 1
 0 100 l 1
 0 250 l 1
 0 400 l 1
 50 400 l 1
 100 400 l 1
 100 450 l 1
EndSplineSet
EndChar

StartChar: parenright
Encoding: 41 41 41
Width: 200
VWidth: 500
Flags: W
LayerCount: 2
Fore
SplineSet
0 450 m 1
 0 500 l 1
 50 500 l 1
 100 500 l 1
 100 450 l 1
 100 400 l 1
 150 400 l 1
 200 400 l 1
 200 250 l 1
 200 100 l 1
 150 100 l 1
 100 100 l 1
 100 50 l 1
 100 0 l 1
 50 0 l 1
 0 0 l 1
 0 50 l 1
 0 100 l 1
 50 100 l 1
 100 100 l 1
 100 250 l 1
 100 400 l 1
 50 400 l 1
 0 400 l 1
 0 450 l 1
EndSplineSet
EndChar

StartChar: asterisk
Encoding: 42 42 42
Width: 300
VWidth: 500
Flags: W
LayerCount: 2
Fore
SplineSet
0 450 m 1
 0 500 l 1
 50 500 l 1
 100 500 l 1
 100 450 l 1
 100 400 l 1
 150 400 l 1
 200 400 l 1
 200 450 l 1
 200 500 l 1
 250 500 l 1
 300 500 l 1
 300 450 l 1
 300 400 l 1
 250 400 l 1
 200 400 l 1
 200 350 l 1
 200 300 l 1
 250 300 l 1
 300 300 l 1
 300 250 l 1
 300 200 l 1
 250 200 l 1
 200 200 l 1
 200 250 l 1
 200 300 l 1
 150 300 l 1
 100 300 l 1
 100 250 l 1
 100 200 l 1
 50 200 l 1
 0 200 l 1
 0 250 l 1
 0 300 l 1
 50 300 l 1
 100 300 l 1
 100 350 l 1
 100 400 l 1
 50 400 l 1
 0 400 l 1
 0 450 l 1
EndSplineSet
EndChar

StartChar: plus
Encoding: 43 43 43
Width: 300
VWidth: 500
Flags: W
LayerCount: 2
Fore
SplineSet
100 350 m 1
 100 400 l 1
 150 400 l 1
 200 400 l 1
 200 350 l 1
 200 300 l 1
 250 300 l 1
 300 300 l 1
 300 250 l 1
 300 200 l 1
 250 200 l 1
 200 200 l 1
 200 150 l 1
 200 100 l 1
 150 100 l 1
 100 100 l 1
 100 150 l 1
 100 200 l 1
 50 200 l 1
 0 200 l 1
 0 250 l 1
 0 300 l 1
 50 300 l 1
 100 300 l 1
 100 350 l 1
EndSplineSet
EndChar

StartChar: comma
Encoding: 44 44 44
Width: 100
VWidth: 500
Flags: W
LayerCount: 2
Fore
SplineSet
0 0 m 1
 0 100 l 1
 50 100 l 1
 100 100 l 1
 100 0 l 1
 100 -100 l 1
 50 -100 l 1
 0 -100 l 1
 0 0 l 1
EndSplineSet
EndChar

StartChar: hyphen
Encoding: 45 45 45
Width: 300
VWidth: 500
Flags: W
LayerCount: 2
Fore
SplineSet
0 250 m 1
 0 300 l 1
 150 300 l 1
 300 300 l 1
 300 250 l 1
 300 200 l 1
 150 200 l 1
 0 200 l 1
 0 250 l 1
EndSplineSet
EndChar

StartChar: period
Encoding: 46 46 46
Width: 100
VWidth: 500
Flags: W
LayerCount: 2
Fore
SplineSet
0 50 m 1
 0 100 l 1
 50 100 l 1
 100 100 l 1
 100 50 l 1
 100 0 l 1
 50 0 l 1
 0 0 l 1
 0 50 l 1
EndSplineSet
EndChar

StartChar: slash
Encoding: 47 47 47
Width: 300
VWidth: 500
Flags: W
LayerCount: 2
Fore
SplineSet
200 400 m 1
 200 500 l 1
 250 500 l 1
 300 500 l 1
 300 400 l 1
 300 300 l 1
 250 300 l 1
 200 300 l 1
 200 200 l 1
 200 100 l 1
 150 100 l 1
 100 100 l 1
 100 0 l 1
 100 -100 l 1
 50 -100 l 1
 0 -100 l 1
 0 0 l 1
 0 100 l 1
 50 100 l 1
 100 100 l 1
 100 200 l 1
 100 300 l 1
 150 300 l 1
 200 300 l 1
 200 400 l 1
EndSplineSet
EndChar

StartChar: zero
Encoding: 48 48 48
Width: 300
VWidth: 500
Flags: W
LayerCount: 2
Fore
SplineSet
100 450 m 1
 100 500 l 1
 200 500 l 1
 300 500 l 1
 300 300 l 1
 300 100 l 1
 250 100 l 1
 200 100 l 1
 200 50 l 1
 200 0 l 1
 100 0 l 1
 0 0 l 1
 0 200 l 1
 0 400 l 1
 50 400 l 1
 100 400 l 1
 100 450 l 1
200 250 m 1
 200 400 l 1
 150 400 l 1
 100 400 l 1
 100 250 l 1
 100 100 l 1
 150 100 l 1
 200 100 l 1
 200 250 l 1
EndSplineSet
EndChar

StartChar: one
Encoding: 49 49 49
Width: 300
VWidth: 500
Flags: W
LayerCount: 2
Fore
SplineSet
0 450 m 1
 0 500 l 1
 100 500 l 1
 200 500 l 1
 200 300 l 1
 200 100 l 1
 250 100 l 1
 300 100 l 1
 300 50 l 1
 300 0 l 1
 150 0 l 1
 0 0 l 1
 0 50 l 1
 0 100 l 1
 50 100 l 1
 100 100 l 1
 100 250 l 1
 100 400 l 1
 50 400 l 1
 0 400 l 1
 0 450 l 1
EndSplineSet
EndChar

StartChar: two
Encoding: 50 50 50
Width: 300
VWidth: 500
Flags: W
LayerCount: 2
Fore
SplineSet
0 450 m 1
 0 500 l 1
 150 500 l 1
 300 500 l 1
 300 350 l 1
 300 200 l 1
 200 200 l 1
 100 200 l 1
 100 150 l 1
 100 100 l 1
 200 100 l 1
 300 100 l 1
 300 50 l 1
 300 0 l 1
 150 0 l 1
 0 0 l 1
 0 150 l 1
 0 300 l 1
 100 300 l 1
 200 300 l 1
 200 350 l 1
 200 400 l 1
 100 400 l 1
 0 400 l 1
 0 450 l 1
EndSplineSet
EndChar

StartChar: three
Encoding: 51 51 51
Width: 300
VWidth: 500
Flags: W
LayerCount: 2
Fore
SplineSet
0 450 m 1
 0 500 l 1
 150 500 l 1
 300 500 l 1
 300 250 l 1
 300 0 l 1
 150 0 l 1
 0 0 l 1
 0 50 l 1
 0 100 l 1
 100 100 l 1
 200 100 l 1
 200 150 l 1
 200 200 l 1
 150 200 l 1
 100 200 l 1
 100 250 l 1
 100 300 l 1
 150 300 l 1
 200 300 l 1
 200 350 l 1
 200 400 l 1
 100 400 l 1
 0 400 l 1
 0 450 l 1
EndSplineSet
EndChar

StartChar: four
Encoding: 52 52 52
Width: 300
VWidth: 500
Flags: W
LayerCount: 2
Fore
SplineSet
0 350 m 1
 0 500 l 1
 50 500 l 1
 100 500 l 1
 100 400 l 1
 100 300 l 1
 150 300 l 1
 200 300 l 1
 200 400 l 1
 200 500 l 1
 250 500 l 1
 300 500 l 1
 300 250 l 1
 300 0 l 1
 250 0 l 1
 200 0 l 1
 200 100 l 1
 200 200 l 1
 100 200 l 1
 0 200 l 1
 0 350 l 1
EndSplineSet
EndChar

StartChar: five
Encoding: 53 53 53
Width: 300
VWidth: 500
Flags: W
LayerCount: 2
Fore
SplineSet
0 350 m 1
 0 500 l 1
 150 500 l 1
 300 500 l 1
 300 450 l 1
 300 400 l 1
 200 400 l 1
 100 400 l 1
 100 350 l 1
 100 300 l 1
 200 300 l 1
 300 300 l 1
 300 150 l 1
 300 0 l 1
 150 0 l 1
 0 0 l 1
 0 50 l 1
 0 100 l 1
 100 100 l 1
 200 100 l 1
 200 150 l 1
 200 200 l 1
 100 200 l 1
 0 200 l 1
 0 350 l 1
EndSplineSet
EndChar

StartChar: six
Encoding: 54 54 54
Width: 300
VWidth: 500
Flags: W
LayerCount: 2
Fore
SplineSet
0 250 m 1
 0 500 l 1
 150 500 l 1
 300 500 l 1
 300 450 l 1
 300 400 l 1
 200 400 l 1
 100 400 l 1
 100 350 l 1
 100 300 l 1
 200 300 l 1
 300 300 l 1
 300 150 l 1
 300 0 l 1
 150 0 l 1
 0 0 l 1
 0 250 l 1
200 150 m 1
 200 200 l 1
 150 200 l 1
 100 200 l 1
 100 150 l 1
 100 100 l 1
 150 100 l 1
 200 100 l 1
 200 150 l 1
EndSplineSet
EndChar

StartChar: seven
Encoding: 55 55 55
Width: 300
VWidth: 500
Flags: W
LayerCount: 2
Fore
SplineSet
0 400 m 1
 0 500 l 1
 150 500 l 1
 300 500 l 1
 300 250 l 1
 300 0 l 1
 250 0 l 1
 200 0 l 1
 200 200 l 1
 200 400 l 1
 150 400 l 1
 100 400 l 1
 100 350 l 1
 100 300 l 1
 50 300 l 1
 0 300 l 1
 0 400 l 1
EndSplineSet
EndChar

StartChar: eight
Encoding: 56 56 56
Width: 300
VWidth: 500
Flags: W
LayerCount: 2
Fore
SplineSet
0 250 m 1
 0 500 l 1
 150 500 l 1
 300 500 l 1
 300 250 l 1
 300 0 l 1
 150 0 l 1
 0 0 l 1
 0 250 l 1
200 350 m 1
 200 400 l 1
 150 400 l 1
 100 400 l 1
 100 350 l 1
 100 300 l 1
 150 300 l 1
 200 300 l 1
 200 350 l 1
200 150 m 1
 200 200 l 1
 150 200 l 1
 100 200 l 1
 100 150 l 1
 100 100 l 1
 150 100 l 1
 200 100 l 1
 200 150 l 1
EndSplineSet
EndChar

StartChar: nine
Encoding: 57 57 57
Width: 300
VWidth: 500
Flags: W
LayerCount: 2
Fore
SplineSet
0 350 m 1
 0 500 l 1
 150 500 l 1
 300 500 l 1
 300 250 l 1
 300 0 l 1
 150 0 l 1
 0 0 l 1
 0 50 l 1
 0 100 l 1
 100 100 l 1
 200 100 l 1
 200 150 l 1
 200 200 l 1
 100 200 l 1
 0 200 l 1
 0 350 l 1
200 350 m 1
 200 400 l 1
 150 400 l 1
 100 400 l 1
 100 350 l 1
 100 300 l 1
 150 300 l 1
 200 300 l 1
 200 350 l 1
EndSplineSet
EndChar

StartChar: colon
Encoding: 58 58 58
Width: 100
VWidth: 500
Flags: W
LayerCount: 2
Fore
SplineSet
0 350 m 1
 0 400 l 1
 50 400 l 1
 100 400 l 1
 100 350 l 1
 100 300 l 1
 50 300 l 1
 0 300 l 1
 0 350 l 1
0 150 m 1
 0 200 l 1
 50 200 l 1
 100 200 l 1
 100 150 l 1
 100 100 l 1
 50 100 l 1
 0 100 l 1
 0 150 l 1
EndSplineSet
EndChar

StartChar: semicolon
Encoding: 59 59 59
Width: 100
VWidth: 500
Flags: W
LayerCount: 2
Fore
SplineSet
0 350 m 1
 0 400 l 1
 50 400 l 1
 100 400 l 1
 100 350 l 1
 100 300 l 1
 50 300 l 1
 0 300 l 1
 0 350 l 1
0 100 m 1
 0 200 l 1
 50 200 l 1
 100 200 l 1
 100 100 l 1
 100 0 l 1
 50 0 l 1
 0 0 l 1
 0 100 l 1
EndSplineSet
EndChar

StartChar: less
Encoding: 60 60 60
Width: 300
VWidth: 500
Flags: W
LayerCount: 2
Fore
SplineSet
200 450 m 1
 200 500 l 1
 250 500 l 1
 300 500 l 1
 300 450 l 1
 300 400 l 1
 250 400 l 1
 200 400 l 1
 200 350 l 1
 200 300 l 1
 150 300 l 1
 100 300 l 1
 100 250 l 1
 100 200 l 1
 150 200 l 1
 200 200 l 1
 200 150 l 1
 200 100 l 1
 250 100 l 1
 300 100 l 1
 300 50 l 1
 300 0 l 1
 250 0 l 1
 200 0 l 1
 200 50 l 1
 200 100 l 1
 150 100 l 1
 100 100 l 1
 100 150 l 1
 100 200 l 1
 50 200 l 1
 0 200 l 1
 0 250 l 1
 0 300 l 1
 50 300 l 1
 100 300 l 1
 100 350 l 1
 100 400 l 1
 150 400 l 1
 200 400 l 1
 200 450 l 1
EndSplineSet
EndChar

StartChar: equal
Encoding: 61 61 61
Width: 300
VWidth: 500
Flags: W
LayerCount: 2
Fore
SplineSet
0 350 m 1
 0 400 l 1
 150 400 l 1
 300 400 l 1
 300 350 l 1
 300 300 l 1
 150 300 l 1
 0 300 l 1
 0 350 l 1
0 150 m 1
 0 200 l 1
 150 200 l 1
 300 200 l 1
 300 150 l 1
 300 100 l 1
 150 100 l 1
 0 100 l 1
 0 150 l 1
EndSplineSet
EndChar

StartChar: greater
Encoding: 62 62 62
Width: 300
VWidth: 500
Flags: W
LayerCount: 2
Fore
SplineSet
0 450 m 1
 0 500 l 1
 50 500 l 1
 100 500 l 1
 100 450 l 1
 100 400 l 1
 150 400 l 1
 200 400 l 1
 200 350 l 1
 200 300 l 1
 250 300 l 1
 300 300 l 1
 300 250 l 1
 300 200 l 1
 250 200 l 1
 200 200 l 1
 200 150 l 1
 200 100 l 1
 150 100 l 1
 100 100 l 1
 100 50 l 1
 100 0 l 1
 50 0 l 1
 0 0 l 1
 0 50 l 1
 0 100 l 1
 50 100 l 1
 100 100 l 1
 100 150 l 1
 100 200 l 1
 150 200 l 1
 200 200 l 1
 200 250 l 1
 200 300 l 1
 150 300 l 1
 100 300 l 1
 100 350 l 1
 100 400 l 1
 50 400 l 1
 0 400 l 1
 0 450 l 1
EndSplineSet
EndChar

StartChar: question
Encoding: 63 63 63
Width: 300
VWidth: 500
Flags: W
LayerCount: 2
Fore
SplineSet
0 450 m 1
 0 500 l 1
 150 500 l 1
 300 500 l 1
 300 350 l 1
 300 200 l 1
 200 200 l 1
 100 200 l 1
 100 250 l 1
 100 300 l 1
 150 300 l 1
 200 300 l 1
 200 350 l 1
 200 400 l 1
 100 400 l 1
 0 400 l 1
 0 450 l 1
100 50 m 1
 100 100 l 1
 150 100 l 1
 200 100 l 1
 200 50 l 1
 200 0 l 1
 150 0 l 1
 100 0 l 1
 100 50 l 1
EndSplineSet
EndChar

StartChar: at
Encoding: 64 64 64
Width: 500
VWidth: 500
Flags: W
LayerCount: 2
Fore
SplineSet
100 450 m 1
 100 500 l 1
 250 500 l 1
 400 500 l 1
 400 450 l 1
 400 400 l 1
 450 400 l 1
 500 400 l 1
 500 250 l 1
 500 100 l 1
 450 100 l 1
 400 100 l 1
 400 50 l 1
 400 0 l 1
 250 0 l 1
 100 0 l 1
 100 50 l 1
 100 100 l 1
 50 100 l 1
 0 100 l 1
 0 150 l 1
 0 200 l 1
 50 200 l 1
 100 200 l 1
 100 250 l 1
 100 300 l 1
 50 300 l 1
 0 300 l 1
 0 350 l 1
 0 400 l 1
 50 400 l 1
 100 400 l 1
 100 450 l 1
400 250 m 1
 400 400 l 1
 250 400 l 1
 100 400 l 1
 100 350 l 1
 100 300 l 1
 200 300 l 1
 300 300 l 1
 300 200 l 1
 300 100 l 1
 350 100 l 1
 400 100 l 1
 400 250 l 1
200 150 m 1
 200 200 l 1
 150 200 l 1
 100 200 l 1
 100 150 l 1
 100 100 l 1
 150 100 l 1
 200 100 l 1
 200 150 l 1
EndSplineSet
EndChar

StartChar: A
Encoding: 65 65 65
Width: 300
VWidth: 500
Flags: W
LayerCount: 2
Fore
SplineSet
0 250 m 1
 0 500 l 1
 150 500 l 1
 300 500 l 1
 300 250 l 1
 300 0 l 1
 250 0 l 1
 200 0 l 1
 200 100 l 1
 200 200 l 1
 150 200 l 1
 100 200 l 1
 100 100 l 1
 100 0 l 1
 50 0 l 1
 0 0 l 1
 0 250 l 1
200 350 m 1
 200 400 l 1
 150 400 l 1
 100 400 l 1
 100 350 l 1
 100 300 l 1
 150 300 l 1
 200 300 l 1
 200 350 l 1
EndSplineSet
EndChar

StartChar: B
Encoding: 66 66 66
Width: 300
VWidth: 500
Flags: W
LayerCount: 2
Fore
SplineSet
0 250 m 1
 0 500 l 1
 150 500 l 1
 300 500 l 1
 300 400 l 1
 300 300 l 1
 250 300 l 1
 200 300 l 1
 200 250 l 1
 200 200 l 1
 250 200 l 1
 300 200 l 1
 300 100 l 1
 300 0 l 1
 150 0 l 1
 0 0 l 1
 0 250 l 1
200 350 m 1
 200 400 l 1
 150 400 l 1
 100 400 l 1
 100 350 l 1
 100 300 l 1
 150 300 l 1
 200 300 l 1
 200 350 l 1
200 150 m 1
 200 200 l 1
 150 200 l 1
 100 200 l 1
 100 150 l 1
 100 100 l 1
 150 100 l 1
 200 100 l 1
 200 150 l 1
EndSplineSet
EndChar

StartChar: C
Encoding: 67 67 67
Width: 300
VWidth: 500
Flags: W
LayerCount: 2
Fore
SplineSet
0 250 m 1
 0 500 l 1
 150 500 l 1
 300 500 l 1
 300 450 l 1
 300 400 l 1
 200 400 l 1
 100 400 l 1
 100 250 l 1
 100 100 l 1
 200 100 l 1
 300 100 l 1
 300 50 l 1
 300 0 l 1
 150 0 l 1
 0 0 l 1
 0 250 l 1
EndSplineSet
EndChar

StartChar: D
Encoding: 68 68 68
Width: 300
VWidth: 500
Flags: W
LayerCount: 2
Fore
SplineSet
0 250 m 1
 0 500 l 1
 100 500 l 1
 200 500 l 1
 200 450 l 1
 200 400 l 1
 250 400 l 1
 300 400 l 1
 300 250 l 1
 300 100 l 1
 250 100 l 1
 200 100 l 1
 200 50 l 1
 200 0 l 1
 100 0 l 1
 0 0 l 1
 0 250 l 1
200 250 m 1
 200 400 l 1
 150 400 l 1
 100 400 l 1
 100 250 l 1
 100 100 l 1
 150 100 l 1
 200 100 l 1
 200 250 l 1
EndSplineSet
EndChar

StartChar: E
Encoding: 69 69 69
Width: 300
VWidth: 500
Flags: W
LayerCount: 2
Fore
SplineSet
0 250 m 1
 0 500 l 1
 150 500 l 1
 300 500 l 1
 300 450 l 1
 300 400 l 1
 200 400 l 1
 100 400 l 1
 100 350 l 1
 100 300 l 1
 150 300 l 1
 200 300 l 1
 200 250 l 1
 200 200 l 1
 150 200 l 1
 100 200 l 1
 100 150 l 1
 100 100 l 1
 200 100 l 1
 300 100 l 1
 300 50 l 1
 300 0 l 1
 150 0 l 1
 0 0 l 1
 0 250 l 1
EndSplineSet
EndChar

StartChar: F
Encoding: 70 70 70
Width: 300
VWidth: 500
Flags: W
LayerCount: 2
Fore
SplineSet
0 250 m 1
 0 500 l 1
 150 500 l 1
 300 500 l 1
 300 450 l 1
 300 400 l 1
 200 400 l 1
 100 400 l 1
 100 350 l 1
 100 300 l 1
 150 300 l 1
 200 300 l 1
 200 250 l 1
 200 200 l 1
 150 200 l 1
 100 200 l 1
 100 100 l 1
 100 0 l 1
 50 0 l 1
 0 0 l 1
 0 250 l 1
EndSplineSet
EndChar

StartChar: G
Encoding: 71 71 71
Width: 300
VWidth: 500
Flags: W
LayerCount: 2
Fore
SplineSet
0 250 m 1
 0 500 l 1
 150 500 l 1
 300 500 l 1
 300 450 l 1
 300 400 l 1
 200 400 l 1
 100 400 l 1
 100 250 l 1
 100 100 l 1
 150 100 l 1
 200 100 l 1
 200 200 l 1
 200 300 l 1
 250 300 l 1
 300 300 l 1
 300 150 l 1
 300 0 l 1
 150 0 l 1
 0 0 l 1
 0 250 l 1
EndSplineSet
EndChar

StartChar: H
Encoding: 72 72 72
Width: 300
VWidth: 500
Flags: W
LayerCount: 2
Fore
SplineSet
0 250 m 1
 0 500 l 1
 50 500 l 1
 100 500 l 1
 100 400 l 1
 100 300 l 1
 150 300 l 1
 200 300 l 1
 200 400 l 1
 200 500 l 1
 250 500 l 1
 300 500 l 1
 300 250 l 1
 300 0 l 1
 250 0 l 1
 200 0 l 1
 200 100 l 1
 200 200 l 1
 150 200 l 1
 100 200 l 1
 100 100 l 1
 100 0 l 1
 50 0 l 1
 0 0 l 1
 0 250 l 1
EndSplineSet
EndChar

StartChar: I
Encoding: 73 73 73
Width: 300
VWidth: 500
Flags: W
LayerCount: 2
Fore
SplineSet
0 450 m 1
 0 500 l 1
 150 500 l 1
 300 500 l 1
 300 450 l 1
 300 400 l 1
 250 400 l 1
 200 400 l 1
 200 250 l 1
 200 100 l 1
 250 100 l 1
 300 100 l 1
 300 50 l 1
 300 0 l 1
 150 0 l 1
 0 0 l 1
 0 50 l 1
 0 100 l 1
 50 100 l 1
 100 100 l 1
 100 250 l 1
 100 400 l 1
 50 400 l 1
 0 400 l 1
 0 450 l 1
EndSplineSet
EndChar

StartChar: J
Encoding: 74 74 74
Width: 300
VWidth: 500
Flags: W
LayerCount: 2
Fore
SplineSet
200 300 m 1
 200 500 l 1
 250 500 l 1
 300 500 l 1
 300 250 l 1
 300 0 l 1
 150 0 l 1
 0 0 l 1
 0 100 l 1
 0 200 l 1
 50 200 l 1
 100 200 l 1
 100 150 l 1
 100 100 l 1
 150 100 l 1
 200 100 l 1
 200 300 l 1
EndSplineSet
EndChar

StartChar: K
Encoding: 75 75 75
Width: 300
VWidth: 500
Flags: W
LayerCount: 2
Fore
SplineSet
0 250 m 1
 0 500 l 1
 50 500 l 1
 100 500 l 1
 100 400 l 1
 100 300 l 1
 150 300 l 1
 200 300 l 1
 200 400 l 1
 200 500 l 1
 250 500 l 1
 300 500 l 1
 300 400 l 1
 300 300 l 1
 250 300 l 1
 200 300 l 1
 200 250 l 1
 200 200 l 1
 250 200 l 1
 300 200 l 1
 300 100 l 1
 300 0 l 1
 250 0 l 1
 200 0 l 1
 200 100 l 1
 200 200 l 1
 150 200 l 1
 100 200 l 1
 100 100 l 1
 100 0 l 1
 50 0 l 1
 0 0 l 1
 0 250 l 1
EndSplineSet
EndChar

StartChar: L
Encoding: 76 76 76
Width: 300
VWidth: 500
Flags: W
LayerCount: 2
Fore
SplineSet
0 250 m 1
 0 500 l 1
 50 500 l 1
 100 500 l 1
 100 300 l 1
 100 100 l 1
 200 100 l 1
 300 100 l 1
 300 50 l 1
 300 0 l 1
 150 0 l 1
 0 0 l 1
 0 250 l 1
EndSplineSet
EndChar

StartChar: M
Encoding: 77 77 77
Width: 500
VWidth: 500
Flags: W
LayerCount: 2
Fore
SplineSet
0 250 m 1
 0 500 l 1
 250 500 l 1
 500 500 l 1
 500 250 l 1
 500 0 l 1
 450 0 l 1
 400 0 l 1
 400 200 l 1
 400 400 l 1
 350 400 l 1
 300 400 l 1
 300 250 l 1
 300 100 l 1
 250 100 l 1
 200 100 l 1
 200 250 l 1
 200 400 l 1
 150 400 l 1
 100 400 l 1
 100 200 l 1
 100 0 l 1
 50 0 l 1
 0 0 l 1
 0 250 l 1
EndSplineSet
EndChar

StartChar: N
Encoding: 78 78 78
Width: 300
VWidth: 500
Flags: W
LayerCount: 2
Fore
SplineSet
0 250 m 1
 0 500 l 1
 150 500 l 1
 300 500 l 1
 300 250 l 1
 300 0 l 1
 250 0 l 1
 200 0 l 1
 200 200 l 1
 200 400 l 1
 150 400 l 1
 100 400 l 1
 100 200 l 1
 100 0 l 1
 50 0 l 1
 0 0 l 1
 0 250 l 1
EndSplineSet
EndChar

StartChar: O
Encoding: 79 79 79
Width: 300
VWidth: 500
Flags: W
LayerCount: 2
Fore
SplineSet
0 250 m 1
 0 500 l 1
 150 500 l 1
 300 500 l 1
 300 250 l 1
 300 0 l 1
 150 0 l 1
 0 0 l 1
 0 250 l 1
200 250 m 1
 200 400 l 1
 150 400 l 1
 100 400 l 1
 100 250 l 1
 100 100 l 1
 150 100 l 1
 200 100 l 1
 200 250 l 1
EndSplineSet
EndChar

StartChar: P
Encoding: 80 80 80
Width: 300
VWidth: 500
Flags: W
LayerCount: 2
Fore
SplineSet
0 250 m 1
 0 500 l 1
 150 500 l 1
 300 500 l 1
 300 350 l 1
 300 200 l 1
 200 200 l 1
 100 200 l 1
 100 100 l 1
 100 0 l 1
 50 0 l 1
 0 0 l 1
 0 250 l 1
200 350 m 1
 200 400 l 1
 150 400 l 1
 100 400 l 1
 100 350 l 1
 100 300 l 1
 150 300 l 1
 200 300 l 1
 200 350 l 1
EndSplineSet
EndChar

StartChar: Q
Encoding: 81 81 81
Width: 300
VWidth: 500
Flags: W
LayerCount: 2
Fore
SplineSet
0 250 m 1
 0 500 l 1
 150 500 l 1
 300 500 l 1
 300 300 l 1
 300 100 l 1
 250 100 l 1
 200 100 l 1
 200 50 l 1
 200 0 l 1
 250 0 l 1
 300 0 l 1
 300 -50 l 1
 300 -100 l 1
 250 -100 l 1
 200 -100 l 1
 200 -50 l 1
 200 0 l 1
 100 0 l 1
 0 0 l 1
 0 250 l 1
200 250 m 1
 200 400 l 1
 150 400 l 1
 100 400 l 1
 100 250 l 1
 100 100 l 1
 150 100 l 1
 200 100 l 1
 200 250 l 1
EndSplineSet
EndChar

StartChar: R
Encoding: 82 82 82
Width: 300
VWidth: 500
Flags: W
LayerCount: 2
Fore
SplineSet
0 250 m 1
 0 500 l 1
 150 500 l 1
 300 500 l 1
 300 400 l 1
 300 300 l 1
 250 300 l 1
 200 300 l 1
 200 250 l 1
 200 200 l 1
 250 200 l 1
 300 200 l 1
 300 100 l 1
 300 0 l 1
 250 0 l 1
 200 0 l 1
 200 100 l 1
 200 200 l 1
 150 200 l 1
 100 200 l 1
 100 100 l 1
 100 0 l 1
 50 0 l 1
 0 0 l 1
 0 250 l 1
200 350 m 1
 200 400 l 1
 150 400 l 1
 100 400 l 1
 100 350 l 1
 100 300 l 1
 150 300 l 1
 200 300 l 1
 200 350 l 1
EndSplineSet
EndChar

StartChar: S
Encoding: 83 83 83
Width: 300
VWidth: 500
Flags: W
LayerCount: 2
Fore
SplineSet
100 300 m 1
 100 500 l 1
 200 500 l 1
 300 500 l 1
 300 450 l 1
 300 400 l 1
 250 400 l 1
 200 400 l 1
 200 200 l 1
 200 0 l 1
 100 0 l 1
 0 0 l 1
 0 50 l 1
 0 100 l 1
 50 100 l 1
 100 100 l 1
 100 300 l 1
EndSplineSet
EndChar

StartChar: T
Encoding: 84 84 84
Width: 300
VWidth: 500
Flags: W
LayerCount: 2
Fore
SplineSet
0 450 m 1
 0 500 l 1
 150 500 l 1
 300 500 l 1
 300 450 l 1
 300 400 l 1
 250 400 l 1
 200 400 l 1
 200 200 l 1
 200 0 l 1
 150 0 l 1
 100 0 l 1
 100 200 l 1
 100 400 l 1
 50 400 l 1
 0 400 l 1
 0 450 l 1
EndSplineSet
EndChar

StartChar: U
Encoding: 85 85 85
Width: 300
VWidth: 500
Flags: W
LayerCount: 2
Fore
SplineSet
0 250 m 1
 0 500 l 1
 50 500 l 1
 100 500 l 1
 100 300 l 1
 100 100 l 1
 150 100 l 1
 200 100 l 1
 200 300 l 1
 200 500 l 1
 250 500 l 1
 300 500 l 1
 300 250 l 1
 300 0 l 1
 150 0 l 1
 0 0 l 1
 0 250 l 1
EndSplineSet
EndChar

StartChar: V
Encoding: 86 86 86
Width: 300
VWidth: 500
Flags: W
LayerCount: 2
Fore
SplineSet
0 300 m 1
 0 500 l 1
 50 500 l 1
 100 500 l 1
 100 350 l 1
 100 200 l 1
 150 200 l 1
 200 200 l 1
 200 350 l 1
 200 500 l 1
 250 500 l 1
 300 500 l 1
 300 300 l 1
 300 100 l 1
 250 100 l 1
 200 100 l 1
 200 50 l 1
 200 0 l 1
 150 0 l 1
 100 0 l 1
 100 50 l 1
 100 100 l 1
 50 100 l 1
 0 100 l 1
 0 300 l 1
EndSplineSet
EndChar

StartChar: W
Encoding: 87 87 87
Width: 500
VWidth: 500
Flags: W
LayerCount: 2
Fore
SplineSet
0 250 m 1
 0 500 l 1
 50 500 l 1
 100 500 l 1
 100 300 l 1
 100 100 l 1
 150 100 l 1
 200 100 l 1
 200 250 l 1
 200 400 l 1
 250 400 l 1
 300 400 l 1
 300 250 l 1
 300 100 l 1
 350 100 l 1
 400 100 l 1
 400 300 l 1
 400 500 l 1
 450 500 l 1
 500 500 l 1
 500 250 l 1
 500 0 l 1
 250 0 l 1
 0 0 l 1
 0 250 l 1
EndSplineSet
EndChar

StartChar: X
Encoding: 88 88 88
Width: 300
VWidth: 500
Flags: W
LayerCount: 2
Fore
SplineSet
0 400 m 1
 0 500 l 1
 50 500 l 1
 100 500 l 1
 100 400 l 1
 100 300 l 1
 150 300 l 1
 200 300 l 1
 200 400 l 1
 200 500 l 1
 250 500 l 1
 300 500 l 1
 300 400 l 1
 300 300 l 1
 250 300 l 1
 200 300 l 1
 200 250 l 1
 200 200 l 1
 250 200 l 1
 300 200 l 1
 300 100 l 1
 300 0 l 1
 250 0 l 1
 200 0 l 1
 200 100 l 1
 200 200 l 1
 150 200 l 1
 100 200 l 1
 100 100 l 1
 100 0 l 1
 50 0 l 1
 0 0 l 1
 0 100 l 1
 0 200 l 1
 50 200 l 1
 100 200 l 1
 100 250 l 1
 100 300 l 1
 50 300 l 1
 0 300 l 1
 0 400 l 1
EndSplineSet
EndChar

StartChar: Y
Encoding: 89 89 89
Width: 300
VWidth: 500
Flags: W
LayerCount: 2
Fore
SplineSet
0 350 m 1
 0 500 l 1
 50 500 l 1
 100 500 l 1
 100 400 l 1
 100 300 l 1
 150 300 l 1
 200 300 l 1
 200 400 l 1
 200 500 l 1
 250 500 l 1
 300 500 l 1
 300 350 l 1
 300 200 l 1
 250 200 l 1
 200 200 l 1
 200 100 l 1
 200 0 l 1
 150 0 l 1
 100 0 l 1
 100 100 l 1
 100 200 l 1
 50 200 l 1
 0 200 l 1
 0 350 l 1
EndSplineSet
EndChar

StartChar: Z
Encoding: 90 90 90
Width: 300
VWidth: 500
Flags: W
LayerCount: 2
Fore
SplineSet
0 450 m 1
 0 500 l 1
 100 500 l 1
 200 500 l 1
 200 300 l 1
 200 100 l 1
 250 100 l 1
 300 100 l 1
 300 50 l 1
 300 0 l 1
 200 0 l 1
 100 0 l 1
 100 200 l 1
 100 400 l 1
 50 400 l 1
 0 400 l 1
 0 450 l 1
EndSplineSet
EndChar

StartChar: bracketleft
Encoding: 91 91 91
Width: 200
VWidth: 500
Flags: W
LayerCount: 2
Fore
SplineSet
0 250 m 1
 0 500 l 1
 100 500 l 1
 200 500 l 1
 200 450 l 1
 200 400 l 1
 150 400 l 1
 100 400 l 1
 100 250 l 1
 100 100 l 1
 150 100 l 1
 200 100 l 1
 200 50 l 1
 200 0 l 1
 100 0 l 1
 0 0 l 1
 0 250 l 1
EndSplineSet
EndChar

StartChar: backslash
Encoding: 92 92 92
Width: 300
VWidth: 500
Flags: W
LayerCount: 2
Fore
SplineSet
0 400 m 1
 0 500 l 1
 50 500 l 1
 100 500 l 1
 100 400 l 1
 100 300 l 1
 150 300 l 1
 200 300 l 1
 200 200 l 1
 200 100 l 1
 250 100 l 1
 300 100 l 1
 300 0 l 1
 300 -100 l 1
 250 -100 l 1
 200 -100 l 1
 200 0 l 1
 200 100 l 1
 150 100 l 1
 100 100 l 1
 100 200 l 1
 100 300 l 1
 50 300 l 1
 0 300 l 1
 0 400 l 1
EndSplineSet
EndChar

StartChar: bracketright
Encoding: 93 93 93
Width: 200
VWidth: 500
Flags: W
LayerCount: 2
Fore
SplineSet
0 450 m 1
 0 500 l 1
 100 500 l 1
 200 500 l 1
 200 250 l 1
 200 0 l 1
 100 0 l 1
 0 0 l 1
 0 50 l 1
 0 100 l 1
 50 100 l 1
 100 100 l 1
 100 250 l 1
 100 400 l 1
 50 400 l 1
 0 400 l 1
 0 450 l 1
EndSplineSet
EndChar

StartChar: asciicircum
Encoding: 94 94 94
Width: 300
VWidth: 500
Flags: W
LayerCount: 2
Fore
SplineSet
100 450 m 1
 100 500 l 1
 150 500 l 1
 200 500 l 1
 200 450 l 1
 200 400 l 1
 250 400 l 1
 300 400 l 1
 300 350 l 1
 300 300 l 1
 250 300 l 1
 200 300 l 1
 200 350 l 1
 200 400 l 1
 150 400 l 1
 100 400 l 1
 100 350 l 1
 100 300 l 1
 50 300 l 1
 0 300 l 1
 0 350 l 1
 0 400 l 1
 50 400 l 1
 100 400 l 1
 100 450 l 1
EndSplineSet
EndChar

StartChar: underscore
Encoding: 95 95 95
Width: 300
VWidth: 500
Flags: W
LayerCount: 2
Fore
SplineSet
0 -50 m 1
 0 0 l 1
 150 0 l 1
 300 0 l 1
 300 -50 l 1
 300 -100 l 1
 150 -100 l 1
 0 -100 l 1
 0 -50 l 1
EndSplineSet
EndChar

StartChar: grave
Encoding: 96 96 96
Width: 200
VWidth: 500
Flags: W
LayerCount: 2
Fore
SplineSet
0 450 m 1
 0 500 l 1
 50 500 l 1
 100 500 l 1
 100 450 l 1
 100 400 l 1
 150 400 l 1
 200 400 l 1
 200 350 l 1
 200 300 l 1
 150 300 l 1
 100 300 l 1
 100 350 l 1
 100 400 l 1
 50 400 l 1
 0 400 l 1
 0 450 l 1
EndSplineSet
EndChar

StartChar: a
Encoding: 97 97 97
Width: 300
VWidth: 500
Flags: W
LayerCount: 2
Fore
SplineSet
100 350 m 1
 100 400 l 1
 200 400 l 1
 300 400 l 1
 300 200 l 1
 300 0 l 1
 200 0 l 1
 100 0 l 1
 100 50 l 1
 100 100 l 1
 50 100 l 1
 0 100 l 1
 0 200 l 1
 0 300 l 1
 50 300 l 1
 100 300 l 1
 100 350 l 1
200 200 m 1
 200 300 l 1
 150 300 l 1
 100 300 l 1
 100 200 l 1
 100 100 l 1
 150 100 l 1
 200 100 l 1
 200 200 l 1
EndSplineSet
EndChar

StartChar: b
Encoding: 98 98 98
Width: 300
VWidth: 500
Flags: W
LayerCount: 2
Fore
SplineSet
0 250 m 1
 0 500 l 1
 50 500 l 1
 100 500 l 1
 100 450 l 1
 100 400 l 1
 200 400 l 1
 300 400 l 1
 300 200 l 1
 300 0 l 1
 150 0 l 1
 0 0 l 1
 0 250 l 1
200 200 m 1
 200 300 l 1
 150 300 l 1
 100 300 l 1
 100 200 l 1
 100 100 l 1
 150 100 l 1
 200 100 l 1
 200 200 l 1
EndSplineSet
EndChar

StartChar: c
Encoding: 99 99 99
Width: 300
VWidth: 500
Flags: W
LayerCount: 2
Fore
SplineSet
0 200 m 1
 0 400 l 1
 150 400 l 1
 300 400 l 1
 300 350 l 1
 300 300 l 1
 200 300 l 1
 100 300 l 1
 100 200 l 1
 100 100 l 1
 200 100 l 1
 300 100 l 1
 300 50 l 1
 300 0 l 1
 150 0 l 1
 0 0 l 1
 0 200 l 1
EndSplineSet
EndChar

StartChar: d
Encoding: 100 100 100
Width: 300
VWidth: 500
Flags: W
LayerCount: 2
Fore
SplineSet
200 450 m 1
 200 500 l 1
 250 500 l 1
 300 500 l 1
 300 250 l 1
 300 0 l 1
 150 0 l 1
 0 0 l 1
 0 200 l 1
 0 400 l 1
 100 400 l 1
 200 400 l 1
 200 450 l 1
200 200 m 1
 200 300 l 1
 150 300 l 1
 100 300 l 1
 100 200 l 1
 100 100 l 1
 150 100 l 1
 200 100 l 1
 200 200 l 1
EndSplineSet
EndChar

StartChar: e
Encoding: 101 101 101
Width: 300
VWidth: 500
Flags: W
LayerCount: 2
Fore
SplineSet
100 350 m 1
 100 400 l 1
 200 400 l 1
 300 400 l 1
 300 300 l 1
 300 200 l 1
 250 200 l 1
 200 200 l 1
 200 150 l 1
 200 100 l 1
 250 100 l 1
 300 100 l 1
 300 50 l 1
 300 0 l 1
 200 0 l 1
 100 0 l 1
 100 50 l 1
 100 100 l 1
 50 100 l 1
 0 100 l 1
 0 200 l 1
 0 300 l 1
 50 300 l 1
 100 300 l 1
 100 350 l 1
200 250 m 1
 200 300 l 1
 150 300 l 1
 100 300 l 1
 100 250 l 1
 100 200 l 1
 150 200 l 1
 200 200 l 1
 200 250 l 1
EndSplineSet
EndChar

StartChar: f
Encoding: 102 102 102
Width: 300
VWidth: 500
Flags: W
LayerCount: 2
Fore
SplineSet
100 400 m 1
 100 500 l 1
 200 500 l 1
 300 500 l 1
 300 450 l 1
 300 400 l 1
 250 400 l 1
 200 400 l 1
 200 350 l 1
 200 300 l 1
 250 300 l 1
 300 300 l 1
 300 250 l 1
 300 200 l 1
 250 200 l 1
 200 200 l 1
 200 100 l 1
 200 0 l 1
 150 0 l 1
 100 0 l 1
 100 100 l 1
 100 200 l 1
 50 200 l 1
 0 200 l 1
 0 250 l 1
 0 300 l 1
 50 300 l 1
 100 300 l 1
 100 400 l 1
EndSplineSet
EndChar

StartChar: g
Encoding: 103 103 103
Width: 300
VWidth: 500
Flags: W
LayerCount: 2
Fore
SplineSet
100 350 m 1
 100 400 l 1
 200 400 l 1
 300 400 l 1
 300 200 l 1
 300 0 l 1
 250 0 l 1
 200 0 l 1
 200 -50 l 1
 200 -100 l 1
 100 -100 l 1
 0 -100 l 1
 0 -50 l 1
 0 0 l 1
 50 0 l 1
 100 0 l 1
 100 50 l 1
 100 100 l 1
 50 100 l 1
 0 100 l 1
 0 200 l 1
 0 300 l 1
 50 300 l 1
 100 300 l 1
 100 350 l 1
200 200 m 1
 200 300 l 1
 150 300 l 1
 100 300 l 1
 100 200 l 1
 100 100 l 1
 150 100 l 1
 200 100 l 1
 200 200 l 1
EndSplineSet
EndChar

StartChar: h
Encoding: 104 104 104
Width: 300
VWidth: 500
Flags: W
LayerCount: 2
Fore
SplineSet
0 250 m 1
 0 500 l 1
 50 500 l 1
 100 500 l 1
 100 450 l 1
 100 400 l 1
 200 400 l 1
 300 400 l 1
 300 200 l 1
 300 0 l 1
 250 0 l 1
 200 0 l 1
 200 150 l 1
 200 300 l 1
 150 300 l 1
 100 300 l 1
 100 150 l 1
 100 0 l 1
 50 0 l 1
 0 0 l 1
 0 250 l 1
EndSplineSet
EndChar

StartChar: i
Encoding: 105 105 105
Width: 100
VWidth: 500
Flags: W
LayerCount: 2
Fore
SplineSet
0 200 m 1
 0 400 l 1
 50 400 l 1
 100 400 l 1
 100 200 l 1
 100 0 l 1
 50 0 l 1
 0 0 l 1
 0 200 l 1
EndSplineSet
EndChar

StartChar: j
Encoding: 106 106 106
Width: 300
VWidth: 500
Flags: W
LayerCount: 2
Fore
SplineSet
200 200 m 1
 200 400 l 1
 250 400 l 1
 300 400 l 1
 300 150 l 1
 300 -100 l 1
 150 -100 l 1
 0 -100 l 1
 0 0 l 1
 0 100 l 1
 50 100 l 1
 100 100 l 1
 100 50 l 1
 100 0 l 1
 150 0 l 1
 200 0 l 1
 200 200 l 1
EndSplineSet
EndChar

StartChar: k
Encoding: 107 107 107
Width: 300
VWidth: 500
Flags: W
LayerCount: 2
Fore
SplineSet
0 250 m 1
 0 500 l 1
 50 500 l 1
 100 500 l 1
 100 400 l 1
 100 300 l 1
 150 300 l 1
 200 300 l 1
 200 350 l 1
 200 400 l 1
 250 400 l 1
 300 400 l 1
 300 350 l 1
 300 300 l 1
 250 300 l 1
 200 300 l 1
 200 250 l 1
 200 200 l 1
 250 200 l 1
 300 200 l 1
 300 100 l 1
 300 0 l 1
 250 0 l 1
 200 0 l 1
 200 100 l 1
 200 200 l 1
 150 200 l 1
 100 200 l 1
 100 100 l 1
 100 0 l 1
 50 0 l 1
 0 0 l 1
 0 250 l 1
EndSplineSet
EndChar

StartChar: l
Encoding: 108 108 108
Width: 100
VWidth: 500
Flags: W
LayerCount: 2
Fore
SplineSet
0 250 m 1
 0 500 l 1
 50 500 l 1
 100 500 l 1
 100 250 l 1
 100 0 l 1
 50 0 l 1
 0 0 l 1
 0 250 l 1
EndSplineSet
EndChar

StartChar: m
Encoding: 109 109 109
Width: 500
VWidth: 500
Flags: W
LayerCount: 2
Fore
SplineSet
0 200 m 1
 0 400 l 1
 250 400 l 1
 500 400 l 1
 500 200 l 1
 500 0 l 1
 450 0 l 1
 400 0 l 1
 400 150 l 1
 400 300 l 1
 350 300 l 1
 300 300 l 1
 300 150 l 1
 300 0 l 1
 250 0 l 1
 200 0 l 1
 200 150 l 1
 200 300 l 1
 150 300 l 1
 100 300 l 1
 100 150 l 1
 100 0 l 1
 50 0 l 1
 0 0 l 1
 0 200 l 1
EndSplineSet
EndChar

StartChar: n
Encoding: 110 110 110
Width: 300
VWidth: 500
Flags: W
LayerCount: 2
Fore
SplineSet
0 200 m 1
 0 400 l 1
 150 400 l 1
 300 400 l 1
 300 200 l 1
 300 0 l 1
 250 0 l 1
 200 0 l 1
 200 150 l 1
 200 300 l 1
 150 300 l 1
 100 300 l 1
 100 150 l 1
 100 0 l 1
 50 0 l 1
 0 0 l 1
 0 200 l 1
EndSplineSet
EndChar

StartChar: o
Encoding: 111 111 111
Width: 300
VWidth: 500
Flags: W
LayerCount: 2
Fore
SplineSet
0 200 m 1
 0 400 l 1
 150 400 l 1
 300 400 l 1
 300 200 l 1
 300 0 l 1
 150 0 l 1
 0 0 l 1
 0 200 l 1
200 200 m 1
 200 300 l 1
 150 300 l 1
 100 300 l 1
 100 200 l 1
 100 100 l 1
 150 100 l 1
 200 100 l 1
 200 200 l 1
EndSplineSet
EndChar

StartChar: p
Encoding: 112 112 112
Width: 300
VWidth: 500
Flags: W
LayerCount: 2
Fore
SplineSet
0 150 m 1
 0 400 l 1
 150 400 l 1
 300 400 l 1
 300 200 l 1
 300 0 l 1
 200 0 l 1
 100 0 l 1
 100 -50 l 1
 100 -100 l 1
 50 -100 l 1
 0 -100 l 1
 0 150 l 1
200 200 m 1
 200 300 l 1
 150 300 l 1
 100 300 l 1
 100 200 l 1
 100 100 l 1
 150 100 l 1
 200 100 l 1
 200 200 l 1
EndSplineSet
EndChar

StartChar: q
Encoding: 113 113 113
Width: 400
VWidth: 500
Flags: W
LayerCount: 2
Fore
SplineSet
100 350 m 1
 100 400 l 1
 200 400 l 1
 300 400 l 1
 300 200 l 1
 300 0 l 1
 350 0 l 1
 400 0 l 1
 400 -50 l 1
 400 -100 l 1
 300 -100 l 1
 200 -100 l 1
 200 -50 l 1
 200 0 l 1
 100 0 l 1
 0 0 l 1
 0 150 l 1
 0 300 l 1
 50 300 l 1
 100 300 l 1
 100 350 l 1
200 200 m 1
 200 300 l 1
 150 300 l 1
 100 300 l 1
 100 200 l 1
 100 100 l 1
 150 100 l 1
 200 100 l 1
 200 200 l 1
EndSplineSet
EndChar

StartChar: r
Encoding: 114 114 114
Width: 300
VWidth: 500
Flags: W
LayerCount: 2
Fore
SplineSet
0 200 m 1
 0 400 l 1
 150 400 l 1
 300 400 l 1
 300 300 l 1
 300 200 l 1
 250 200 l 1
 200 200 l 1
 200 250 l 1
 200 300 l 1
 150 300 l 1
 100 300 l 1
 100 150 l 1
 100 0 l 1
 50 0 l 1
 0 0 l 1
 0 200 l 1
EndSplineSet
EndChar

StartChar: s
Encoding: 115 115 115
Width: 300
VWidth: 500
Flags: W
LayerCount: 2
Fore
SplineSet
100 250 m 1
 100 400 l 1
 200 400 l 1
 300 400 l 1
 300 350 l 1
 300 300 l 1
 250 300 l 1
 200 300 l 1
 200 150 l 1
 200 0 l 1
 100 0 l 1
 0 0 l 1
 0 50 l 1
 0 100 l 1
 50 100 l 1
 100 100 l 1
 100 250 l 1
EndSplineSet
EndChar

StartChar: t
Encoding: 116 116 116
Width: 300
VWidth: 500
Flags: W
LayerCount: 2
Fore
SplineSet
100 450 m 1
 100 500 l 1
 150 500 l 1
 200 500 l 1
 200 450 l 1
 200 400 l 1
 250 400 l 1
 300 400 l 1
 300 350 l 1
 300 300 l 1
 250 300 l 1
 200 300 l 1
 200 200 l 1
 200 100 l 1
 250 100 l 1
 300 100 l 1
 300 50 l 1
 300 0 l 1
 200 0 l 1
 100 0 l 1
 100 150 l 1
 100 300 l 1
 50 300 l 1
 0 300 l 1
 0 350 l 1
 0 400 l 1
 50 400 l 1
 100 400 l 1
 100 450 l 1
EndSplineSet
EndChar

StartChar: u
Encoding: 117 117 117
Width: 300
VWidth: 500
Flags: W
LayerCount: 2
Fore
SplineSet
0 200 m 1
 0 400 l 1
 50 400 l 1
 100 400 l 1
 100 250 l 1
 100 100 l 1
 150 100 l 1
 200 100 l 1
 200 250 l 1
 200 400 l 1
 250 400 l 1
 300 400 l 1
 300 200 l 1
 300 0 l 1
 150 0 l 1
 0 0 l 1
 0 200 l 1
EndSplineSet
EndChar

StartChar: v
Encoding: 118 118 118
Width: 300
VWidth: 500
Flags: W
LayerCount: 2
Fore
SplineSet
0 250 m 1
 0 400 l 1
 50 400 l 1
 100 400 l 1
 100 300 l 1
 100 200 l 1
 150 200 l 1
 200 200 l 1
 200 300 l 1
 200 400 l 1
 250 400 l 1
 300 400 l 1
 300 250 l 1
 300 100 l 1
 250 100 l 1
 200 100 l 1
 200 50 l 1
 200 0 l 1
 150 0 l 1
 100 0 l 1
 100 50 l 1
 100 100 l 1
 50 100 l 1
 0 100 l 1
 0 250 l 1
EndSplineSet
EndChar

StartChar: w
Encoding: 119 119 119
Width: 500
VWidth: 500
Flags: W
LayerCount: 2
Fore
SplineSet
0 200 m 1
 0 400 l 1
 50 400 l 1
 100 400 l 1
 100 250 l 1
 100 100 l 1
 150 100 l 1
 200 100 l 1
 200 250 l 1
 200 400 l 1
 250 400 l 1
 300 400 l 1
 300 250 l 1
 300 100 l 1
 350 100 l 1
 400 100 l 1
 400 250 l 1
 400 400 l 1
 450 400 l 1
 500 400 l 1
 500 200 l 1
 500 0 l 1
 250 0 l 1
 0 0 l 1
 0 200 l 1
EndSplineSet
EndChar

StartChar: x
Encoding: 120 120 120
Width: 300
VWidth: 500
Flags: W
LayerCount: 2
Fore
SplineSet
0 350 m 1
 0 400 l 1
 50 400 l 1
 100 400 l 1
 100 350 l 1
 100 300 l 1
 150 300 l 1
 200 300 l 1
 200 350 l 1
 200 400 l 1
 250 400 l 1
 300 400 l 1
 300 350 l 1
 300 300 l 1
 250 300 l 1
 200 300 l 1
 200 250 l 1
 200 200 l 1
 250 200 l 1
 300 200 l 1
 300 100 l 1
 300 0 l 1
 250 0 l 1
 200 0 l 1
 200 100 l 1
 200 200 l 1
 150 200 l 1
 100 200 l 1
 100 100 l 1
 100 0 l 1
 50 0 l 1
 0 0 l 1
 0 100 l 1
 0 200 l 1
 50 200 l 1
 100 200 l 1
 100 250 l 1
 100 300 l 1
 50 300 l 1
 0 300 l 1
 0 350 l 1
EndSplineSet
EndChar

StartChar: y
Encoding: 121 121 121
Width: 300
VWidth: 500
Flags: W
LayerCount: 2
Fore
SplineSet
0 250 m 1
 0 400 l 1
 50 400 l 1
 100 400 l 1
 100 250 l 1
 100 100 l 1
 150 100 l 1
 200 100 l 1
 200 250 l 1
 200 400 l 1
 250 400 l 1
 300 400 l 1
 300 200 l 1
 300 0 l 1
 250 0 l 1
 200 0 l 1
 200 -50 l 1
 200 -100 l 1
 100 -100 l 1
 0 -100 l 1
 0 -50 l 1
 0 0 l 1
 50 0 l 1
 100 0 l 1
 100 50 l 1
 100 100 l 1
 50 100 l 1
 0 100 l 1
 0 250 l 1
EndSplineSet
EndChar

StartChar: z
Encoding: 122 122 122
Width: 300
VWidth: 500
Flags: W
LayerCount: 2
Fore
SplineSet
0 350 m 1
 0 400 l 1
 100 400 l 1
 200 400 l 1
 200 250 l 1
 200 100 l 1
 250 100 l 1
 300 100 l 1
 300 50 l 1
 300 0 l 1
 200 0 l 1
 100 0 l 1
 100 150 l 1
 100 300 l 1
 50 300 l 1
 0 300 l 1
 0 350 l 1
EndSplineSet
EndChar

StartChar: braceleft
Encoding: 123 123 123
Width: 300
VWidth: 500
Flags: W
LayerCount: 2
Fore
SplineSet
100 400 m 1
 100 500 l 1
 200 500 l 1
 300 500 l 1
 300 450 l 1
 300 400 l 1
 250 400 l 1
 200 400 l 1
 200 250 l 1
 200 100 l 1
 250 100 l 1
 300 100 l 1
 300 50 l 1
 300 0 l 1
 200 0 l 1
 100 0 l 1
 100 100 l 1
 100 200 l 1
 50 200 l 1
 0 200 l 1
 0 250 l 1
 0 300 l 1
 50 300 l 1
 100 300 l 1
 100 400 l 1
EndSplineSet
EndChar

StartChar: bar
Encoding: 124 124 124
Width: 100
VWidth: 500
Flags: W
LayerCount: 2
Fore
SplineSet
0 400 m 1
 0 500 l 1
 50 500 l 1
 100 500 l 1
 100 400 l 1
 100 300 l 1
 50 300 l 1
 0 300 l 1
 0 400 l 1
0 100 m 1
 0 200 l 1
 50 200 l 1
 100 200 l 1
 100 100 l 1
 100 0 l 1
 50 0 l 1
 0 0 l 1
 0 100 l 1
EndSplineSet
EndChar

StartChar: braceright
Encoding: 125 125 125
Width: 300
VWidth: 500
Flags: W
LayerCount: 2
Fore
SplineSet
0 450 m 1
 0 500 l 1
 100 500 l 1
 200 500 l 1
 200 400 l 1
 200 300 l 1
 250 300 l 1
 300 300 l 1
 300 250 l 1
 300 200 l 1
 250 200 l 1
 200 200 l 1
 200 100 l 1
 200 0 l 1
 100 0 l 1
 0 0 l 1
 0 50 l 1
 0 100 l 1
 50 100 l 1
 100 100 l 1
 100 250 l 1
 100 400 l 1
 50 400 l 1
 0 400 l 1
 0 450 l 1
EndSplineSet
EndChar

StartChar: asciitilde
Encoding: 126 126 126
Width: 300
VWidth: 500
Flags: W
LayerCount: 2
Fore
SplineSet
0 250 m 1
 0 300 l 1
 100 300 l 1
 200 300 l 1
 200 250 l 1
 200 200 l 1
 250 200 l 1
 300 200 l 1
 300 150 l 1
 300 100 l 1
 200 100 l 1
 100 100 l 1
 100 150 l 1
 100 200 l 1
 50 200 l 1
 0 200 l 1
 0 250 l 1
EndSplineSet
EndChar

